<mxfile host="65bd71144e">
    <diagram id="yenbl2v4epgFswwNaxEG" name="Strona-1">
        <mxGraphModel dx="1315" dy="926" grid="1" gridSize="10" guides="1" tooltips="1" connect="1" arrows="1" fold="1" page="1" pageScale="1" pageWidth="827" pageHeight="1169" math="0" shadow="0">
            <root>
                <mxCell id="0"/>
                <mxCell id="1" parent="0"/>
                <mxCell id="ZLni10VpOksZBH0QkSlS-1" value="Admin" style="shape=umlActor;verticalLabelPosition=bottom;verticalAlign=top;html=1;outlineConnect=0;fillColor=none;" parent="1" vertex="1">
                    <mxGeometry x="480" y="280" width="30" height="60" as="geometry"/>
                </mxCell>
                <mxCell id="ZLni10VpOksZBH0QkSlS-2" value="Customer" style="shape=umlActor;verticalLabelPosition=bottom;verticalAlign=top;html=1;outlineConnect=0;gradientColor=none;fillColor=none;" parent="1" vertex="1">
                    <mxGeometry x="90" y="280" width="30" height="60" as="geometry"/>
                </mxCell>
                <mxCell id="gL1yDLRL9k8ONJxb9jzM-3" value="" style="rounded=1;whiteSpace=wrap;html=1;fillColor=none;" parent="1" vertex="1">
                    <mxGeometry x="180" y="110" width="250" height="400" as="geometry"/>
                </mxCell>
                <mxCell id="gL1yDLRL9k8ONJxb9jzM-4" value="Login" style="ellipse;whiteSpace=wrap;html=1;fillColor=none;fontSize=11;" parent="1" vertex="1">
                    <mxGeometry x="260" y="140" width="90" height="40" as="geometry"/>
                </mxCell>
                <mxCell id="gL1yDLRL9k8ONJxb9jzM-5" value="Sign up" style="ellipse;whiteSpace=wrap;html=1;fillColor=none;fontSize=11;" parent="1" vertex="1">
                    <mxGeometry x="210" y="230" width="90" height="40" as="geometry"/>
                </mxCell>
                <mxCell id="gL1yDLRL9k8ONJxb9jzM-6" value="Add weather notifier" style="ellipse;whiteSpace=wrap;html=1;fillColor=none;fontSize=11;" parent="1" vertex="1">
                    <mxGeometry x="210" y="290" width="90" height="40" as="geometry"/>
                </mxCell>
                <mxCell id="gL1yDLRL9k8ONJxb9jzM-7" value="Delete weather notifier" style="ellipse;whiteSpace=wrap;html=1;fillColor=none;fontSize=11;" parent="1" vertex="1">
                    <mxGeometry x="210" y="350" width="90" height="40" as="geometry"/>
                </mxCell>
                <mxCell id="gL1yDLRL9k8ONJxb9jzM-8" value="Update weather notifier" style="ellipse;whiteSpace=wrap;html=1;fillColor=none;fontSize=11;" parent="1" vertex="1">
                    <mxGeometry x="210" y="400" width="90" height="40" as="geometry"/>
                </mxCell>
                <mxCell id="gL1yDLRL9k8ONJxb9jzM-11" value="Add user" style="ellipse;whiteSpace=wrap;html=1;fillColor=none;fontSize=11;" parent="1" vertex="1">
                    <mxGeometry x="324" y="290" width="90" height="40" as="geometry"/>
                </mxCell>
                <mxCell id="gL1yDLRL9k8ONJxb9jzM-12" value="Delete user" style="ellipse;whiteSpace=wrap;html=1;fillColor=none;fontSize=11;" parent="1" vertex="1">
                    <mxGeometry x="324" y="360" width="90" height="40" as="geometry"/>
                </mxCell>
                <mxCell id="gL1yDLRL9k8ONJxb9jzM-13" value="Update user" style="ellipse;whiteSpace=wrap;html=1;fillColor=none;fontSize=11;" parent="1" vertex="1">
                    <mxGeometry x="324" y="420" width="90" height="40" as="geometry"/>
                </mxCell>
                <mxCell id="gL1yDLRL9k8ONJxb9jzM-14" value="Update account details" style="ellipse;whiteSpace=wrap;html=1;fillColor=none;fontSize=11;" parent="1" vertex="1">
                    <mxGeometry x="210" y="450" width="90" height="40" as="geometry"/>
                </mxCell>
                <mxCell id="gL1yDLRL9k8ONJxb9jzM-16" value="" style="endArrow=none;html=1;rounded=0;exitX=1;exitY=0.5;exitDx=0;exitDy=0;" parent="1" source="gL1yDLRL9k8ONJxb9jzM-11" edge="1">
                    <mxGeometry width="50" height="50" relative="1" as="geometry">
                        <mxPoint x="340" y="320" as="sourcePoint"/>
                        <mxPoint x="470" y="310" as="targetPoint"/>
                    </mxGeometry>
                </mxCell>
                <mxCell id="gL1yDLRL9k8ONJxb9jzM-17" value="" style="endArrow=none;html=1;rounded=0;exitX=1;exitY=0.5;exitDx=0;exitDy=0;" parent="1" source="gL1yDLRL9k8ONJxb9jzM-12" edge="1">
                    <mxGeometry width="50" height="50" relative="1" as="geometry">
                        <mxPoint x="340" y="320" as="sourcePoint"/>
                        <mxPoint x="470" y="310" as="targetPoint"/>
                    </mxGeometry>
                </mxCell>
                <mxCell id="gL1yDLRL9k8ONJxb9jzM-18" value="" style="endArrow=none;html=1;rounded=0;exitX=1;exitY=0;exitDx=0;exitDy=0;" parent="1" source="gL1yDLRL9k8ONJxb9jzM-13" edge="1">
                    <mxGeometry width="50" height="50" relative="1" as="geometry">
                        <mxPoint x="340" y="320" as="sourcePoint"/>
                        <mxPoint x="470" y="310" as="targetPoint"/>
                    </mxGeometry>
                </mxCell>
                <mxCell id="gL1yDLRL9k8ONJxb9jzM-19" value="" style="endArrow=none;html=1;rounded=0;entryX=0;entryY=1;entryDx=0;entryDy=0;" parent="1" target="gL1yDLRL9k8ONJxb9jzM-4" edge="1">
                    <mxGeometry width="50" height="50" relative="1" as="geometry">
                        <mxPoint x="130" y="310" as="sourcePoint"/>
                        <mxPoint x="179.24" y="219.9999999999999" as="targetPoint"/>
                    </mxGeometry>
                </mxCell>
                <mxCell id="gL1yDLRL9k8ONJxb9jzM-20" value="" style="endArrow=none;html=1;rounded=0;entryX=0;entryY=1;entryDx=0;entryDy=0;" parent="1" target="gL1yDLRL9k8ONJxb9jzM-5" edge="1">
                    <mxGeometry width="50" height="50" relative="1" as="geometry">
                        <mxPoint x="130" y="310" as="sourcePoint"/>
                        <mxPoint x="179.24" y="219.9999999999999" as="targetPoint"/>
                    </mxGeometry>
                </mxCell>
                <mxCell id="gL1yDLRL9k8ONJxb9jzM-21" value="" style="endArrow=none;html=1;rounded=0;entryX=0;entryY=0.5;entryDx=0;entryDy=0;" parent="1" target="gL1yDLRL9k8ONJxb9jzM-6" edge="1">
                    <mxGeometry width="50" height="50" relative="1" as="geometry">
                        <mxPoint x="130" y="310" as="sourcePoint"/>
                        <mxPoint x="179.24" y="219.9999999999999" as="targetPoint"/>
                    </mxGeometry>
                </mxCell>
                <mxCell id="gL1yDLRL9k8ONJxb9jzM-22" value="" style="endArrow=none;html=1;rounded=0;entryX=0;entryY=0.5;entryDx=0;entryDy=0;" parent="1" target="gL1yDLRL9k8ONJxb9jzM-7" edge="1">
                    <mxGeometry width="50" height="50" relative="1" as="geometry">
                        <mxPoint x="130" y="310" as="sourcePoint"/>
                        <mxPoint x="179.24" y="219.9999999999999" as="targetPoint"/>
                    </mxGeometry>
                </mxCell>
                <mxCell id="gL1yDLRL9k8ONJxb9jzM-23" value="" style="endArrow=none;html=1;rounded=0;entryX=0;entryY=0.5;entryDx=0;entryDy=0;" parent="1" target="gL1yDLRL9k8ONJxb9jzM-8" edge="1">
                    <mxGeometry width="50" height="50" relative="1" as="geometry">
                        <mxPoint x="130" y="310" as="sourcePoint"/>
                        <mxPoint x="179.24" y="219.9999999999999" as="targetPoint"/>
                    </mxGeometry>
                </mxCell>
                <mxCell id="gL1yDLRL9k8ONJxb9jzM-24" value="" style="endArrow=none;html=1;rounded=0;entryX=0;entryY=0.5;entryDx=0;entryDy=0;" parent="1" target="gL1yDLRL9k8ONJxb9jzM-14" edge="1">
                    <mxGeometry width="50" height="50" relative="1" as="geometry">
                        <mxPoint x="130" y="310" as="sourcePoint"/>
                        <mxPoint x="179.24" y="219.9999999999999" as="targetPoint"/>
                    </mxGeometry>
                </mxCell>
                <mxCell id="gL1yDLRL9k8ONJxb9jzM-25" value="" style="endArrow=none;html=1;rounded=0;exitX=1;exitY=0.5;exitDx=0;exitDy=0;" parent="1" source="gL1yDLRL9k8ONJxb9jzM-4" edge="1">
                    <mxGeometry width="50" height="50" relative="1" as="geometry">
                        <mxPoint x="340" y="320" as="sourcePoint"/>
                        <mxPoint x="470" y="310" as="targetPoint"/>
                    </mxGeometry>
                </mxCell>
            </root>
        </mxGraphModel>
    </diagram>
</mxfile>